<svg xmlns="http://www.w3.org/2000/svg" xmlns:xlink="http://www.w3.org/1999/xlink" fill="none" version="1.1" width="24" height="24" viewBox="0 0 24 24"><defs><clipPath id="master_svg0_2434_17975"><rect x="0" y="0" width="24" height="24" rx="0"/></clipPath></defs><g clip-path="url(#master_svg0_2434_17975)"><g><path d="M19.508619531249998,8.08159L4.92423453125,8.08159L4.83153743125,7.7417C4.61524453125,7.00012,4.98603253125,6.2122,5.68126153125,5.90321L14.99731953125,1.762735C15.36811953125,1.5927898,15.80071953125,1.5773403,16.18691953125,1.731836C16.57321953125,1.886331,16.882119531249998,2.164422,17.05211953125,2.55066L19.508619531249998,8.08159ZM5.71216053125,7.15462L18.07181953125,7.15462L16.20241953125,2.92145C16.14061953125,2.76695,16.01701953125,2.65881,15.86251953125,2.597009C15.70801953125,2.535211,15.53801953125,2.535211,15.38351953125,2.612458L6.06749953125,6.75293C5.88210953125,6.83018,5.77395953125,6.98467,5.71216053125,7.15462Z" fill="#6F6F6F" fill-opacity="1"/></g><g><path d="M19.50854765625,8.08159L3.19384765625,8.08159L3.19384765625,7.30911C3.19384765625,5.85686,4.3680076562500005,4.68269,5.8202676562499995,4.68269L8.431237656250001,4.68269L14.99724765625,1.762735C15.36804765625,1.5927898,15.80064765625,1.5773403,16.186847656250002,1.731836C16.57314765625,1.886331,16.882147656249998,2.164422,17.05204765625,2.55066L19.50854765625,8.08159ZM4.12081865625,7.15462L18.07174765625,7.15462L16.202347656249998,2.92145C16.14054765625,2.76695,16.01694765625,2.65881,15.86244765625,2.597009C15.70794765625,2.535211,15.53804765625,2.535211,15.38354765625,2.612458L8.63207765625,5.6096699999999995L5.8202676562499995,5.6096699999999995C4.93964765625,5.6096699999999995,4.21351765625,6.28945,4.12081865625,7.15462Z" fill="#6F6F6F" fill-opacity="1"/></g><g><path d="M19.57034765625,20.131896875000002L4.42980765625,20.131896875000002C3.75003065625,20.131896875000002,3.19384765625,19.575696875,3.19384765625,18.895896875L3.19384765625,7.154296875L19.57034765625,7.154296875C20.25014765625,7.154296875,20.80634765625,7.710479875,20.80634765625,8.390256875L20.80634765625,18.895896875C20.80634765625,19.575696875,20.25014765625,20.131896875000002,19.57034765625,20.131896875000002ZM4.12081865625,8.081267875L4.12081865625,18.895896875C4.12081865625,19.065896875,4.25986765625,19.204896875,4.42980765625,19.204896875L19.57034765625,19.204896875C19.74024765625,19.204896875,19.87934765625,19.065896875,19.87934765625,18.895896875L19.87934765625,8.390256875C19.87934765625,8.220316875,19.74024765625,8.081267875,19.57034765625,8.081267875L4.12081865625,8.081267875Z" fill="#6F6F6F" fill-opacity="1"/></g><g><path d="M16.86669296875,15.960390625C16.14056296875,15.960390625,15.55348296875,15.373290625,15.55348296875,14.647190625L15.55348296875,12.793250625C15.55348296875,12.067120625,16.14056296875,11.480040625,16.86669296875,11.480040625C17.59281296875,11.480040625,18.179942968749998,12.067120625,18.179942968749998,12.793250625L18.179942968749998,14.647190625C18.179942968749998,15.373290625,17.59281296875,15.960390625,16.86669296875,15.960390625ZM16.86669296875,12.407010625C16.650392968749998,12.407010625,16.48045296875,12.576960625,16.48045296875,12.793250625L16.48045296875,14.647190625C16.48045296875,14.863490625,16.650392968749998,15.033390625,16.86669296875,15.033390625C17.082982968750002,15.033390625,17.25292296875,14.863490625,17.25292296875,14.647190625L17.25292296875,12.793250625C17.25292296875,12.576960625,17.082982968750002,12.407010625,16.86669296875,12.407010625ZM8.14404296875,7.211650625L16.80103296875,3.525390625L17.164092968749998,4.378204625L8.50725996875,8.064460624999999L8.14404296875,7.211650625Z" fill="#6F6F6F" fill-opacity="1"/></g></g></svg>